<svg width="14" height="14" viewBox="0 0 14 14" fill="none" xmlns="http://www.w3.org/2000/svg">
<g clip-path="url(#clip0_1545_11374)">
<path d="M7 10.02V11.03" stroke="#000001" stroke-linecap="round" stroke-linejoin="round"/>
<path d="M7 5.01001V5.95001" stroke="#000001" stroke-linecap="round" stroke-linejoin="round"/>
<path d="M7 13.49C10.5 13.49 13 12.25 13 9.48997C13 6.48997 11.5 4.48997 8.5 2.98997L9.68 1.46997C9.73995 1.37024 9.77246 1.25644 9.77425 1.14009C9.77604 1.02374 9.74704 0.908993 9.69018 0.807468C9.63333 0.705943 9.55065 0.621254 9.45051 0.561984C9.35038 0.502714 9.23636 0.47097 9.12 0.469971H4.88C4.76364 0.47097 4.64962 0.502714 4.54949 0.561984C4.44935 0.621254 4.36667 0.705943 4.30982 0.807468C4.25296 0.908993 4.22396 1.02374 4.22575 1.14009C4.22754 1.25644 4.26005 1.37024 4.32 1.46997L5.5 2.99997C2.5 4.50997 1 6.50997 1 9.50997C1 12.25 3.5 13.49 7 13.49Z" stroke="#000001" stroke-linecap="round" stroke-linejoin="round"/>
<path d="M6 9.55986C6.12201 9.70469 6.27558 9.81965 6.44893 9.89592C6.62227 9.97219 6.81078 10.0077 7 9.99985C7.2892 10.0196 7.57479 9.92639 7.79671 9.7399C8.01864 9.55341 8.15961 9.28813 8.19 8.99985C8.15961 8.71157 8.01864 8.4463 7.79671 8.25981C7.57479 8.07332 7.2892 7.98014 7 7.99985C6.71079 8.01957 6.42521 7.92639 6.20328 7.7399C5.98136 7.55341 5.84038 7.28813 5.81 6.99985C5.83794 6.71056 5.97824 6.44377 6.20074 6.25679C6.42325 6.06981 6.71022 5.97756 7 5.99985C7.18588 5.98848 7.37198 6.01846 7.54489 6.08762C7.7178 6.15679 7.87323 6.26342 8 6.39985" stroke="#000001" stroke-linecap="round" stroke-linejoin="round"/>
</g>
<defs>
<clipPath id="clip0_1545_11374">
<rect width="14" height="14" fill="white"/>
</clipPath>
</defs>
</svg>
