<svg width="14" height="14" viewBox="0 0 14 14" fill="none" xmlns="http://www.w3.org/2000/svg">
<g clip-path="url(#clip0_1545_13499)">
<path d="M10.5 8.5002C10.4999 9.3389 10.2889 10.1641 9.88634 10.8999C9.48376 11.6356 8.90256 12.2583 8.19625 12.7106C7.48994 13.1629 6.68121 13.4302 5.8445 13.488C5.00779 13.5458 4.16998 13.3922 3.4082 13.0413C2.64642 12.6904 1.98515 12.1535 1.48524 11.4801C0.985338 10.8066 0.662869 10.0183 0.547517 9.18754C0.432166 8.35681 0.527638 7.51041 0.825147 6.72624C1.12266 5.94208 1.61264 5.24535 2.25 4.7002" stroke="#000001" stroke-linecap="round" stroke-linejoin="round"/>
<path d="M5.28 6.65015C5.17432 6.86834 5.11961 7.1077 5.12 7.35015C5.11867 7.55144 5.15734 7.75099 5.23376 7.93722C5.31017 8.12345 5.42282 8.29264 5.56516 8.43498C5.7075 8.57732 5.8767 8.68997 6.06292 8.76639C6.24915 8.84281 6.4487 8.88148 6.65 8.88015C6.85421 8.88015 7.05007 8.96127 7.19447 9.10567C7.33887 9.25008 7.42 9.44593 7.42 9.65015V13.1201" stroke="#000001" stroke-linecap="round" stroke-linejoin="round"/>
<path d="M0.570007 9.27005H2.42001C2.62558 9.26471 2.83015 9.3006 3.02163 9.37559C3.21311 9.45059 3.38764 9.56318 3.5349 9.70672C3.68217 9.85025 3.79919 10.0218 3.87908 10.2113C3.95896 10.4008 4.00008 10.6044 4.00001 10.8101V13.2601" stroke="#000001" stroke-linecap="round" stroke-linejoin="round"/>
<path d="M13.26 1.96999L12.26 1.62999C12.1897 1.60611 12.1136 1.6059 12.0431 1.62937C11.9727 1.65284 11.9119 1.69872 11.87 1.75999L11.14 2.88999L7.14 0.889988C6.82387 0.703676 6.47046 0.58954 6.10506 0.555747C5.73967 0.521954 5.37133 0.56934 5.02638 0.694513C4.68144 0.819687 4.36842 1.01955 4.10974 1.27981C3.85105 1.54007 3.65308 1.85429 3.53 2.19999C3.49608 2.28967 3.48151 2.38551 3.48724 2.48122C3.49297 2.57693 3.51888 2.67035 3.56326 2.75534C3.60765 2.84033 3.66951 2.91497 3.74477 2.97437C3.82004 3.03377 3.90702 3.07658 4 3.09999L6.61 3.93999L6.87 4.02999L7.36 5.70999C7.37574 5.76849 7.40599 5.82207 7.44794 5.86577C7.48989 5.90947 7.54219 5.94188 7.6 5.95999L8.78 6.33999C8.84024 6.35961 8.90452 6.36344 8.96666 6.3511C9.02881 6.33876 9.08674 6.31067 9.13492 6.26952C9.18309 6.22837 9.21989 6.17554 9.2418 6.11609C9.2637 6.05664 9.26997 5.99256 9.26 5.92999L9 4.67999H9.17L11.72 5.50999C11.8871 5.56759 12.0702 5.55683 12.2294 5.48003C12.3886 5.40324 12.5111 5.26663 12.57 5.09999L13.47 2.32999C13.4799 2.25519 13.4646 2.17922 13.4266 2.11404C13.3886 2.04886 13.33 1.99819 13.26 1.96999Z" stroke="#000001" stroke-linecap="round" stroke-linejoin="round"/>
</g>
<defs>
<clipPath id="clip0_1545_13499">
<rect width="14" height="14" fill="white"/>
</clipPath>
</defs>
</svg>
